Patient4_TMGait_0pt4_01_left_02_EMG.mot
version=1
nRows=23
nColumns=33
inDegrees=no
endheader
time	1LAddLong	2LGlutMax	3LGlutMed	4LIliopsoas	5LSemiMemb	6LBicFemLong	7LRecFem	8LVastMed	9LVastLat	10LGasMed	11LTibAnt	12lTibPost	13LPeroneusLong	14LSol	15LExtDigLong	16LFlexDigLong	17RAddLong	18RGlutMax	19RGlutMed	20RIliopsoas	21RSemiMemb	22RBicFemLong	23RRecFem	24RVastMed	25RVastLat	26RGasMed	27RTibAnt	28RTibPost	29RPeroneusLong	30RSol	31RExtDigLong	32RFlexDigLong
2.8	-0.002747	0.028687	0.011597	0.013275	-0.010223	-0.069275	0.016174	-0.01236	0.077362	-0.025024	0.007782	0.005951	0.02533	-0.15442	0.00946	-0.005341	0.002136	0.42831	-0.089264	-0.044708	0.18768	0.023499	0.025482	0.009918	0.048828	-0.063019	0.15228	-0.027008	-0.84061	0.29953	-0.003662	-0.000916
2.801	0.005188	0.042877	0.011749	0.002136	-0.034485	-0.083923	0.012054	0.000763	0.079651	-0.033112	0.007019	0.004883	0.03006	-0.061951	0.016632	0.001526	0.005493	0.37003	0.096741	0.033722	0.11398	0.004272	0.056915	-0.006714	0.048065	-0.006409	0.074005	-0.040588	0.45883	0.21378	-0.000916	0.00412
2.802	0.00885	0.003052	0.038452	0.013428	-0.029144	-0.036926	0.029297	-0.003357	0.075989	-0.036926	-0.001373	0.001831	0.033112	-0.035553	0.014648	-0.000763	-0.012207	0.34805	0.39566	0.11215	0.15457	-0.082397	0.18784	-0.089874	-0.045624	0.050659	0.003357	-0.053406	0.60043	0.10101	0.001068	-0.001526
2.803	0.007629	0.037384	0.030518	0.017242	0.003204	-0.007935	0.016479	-0.010529	0.09201	-0.033264	0.008698	0.002594	0.028229	-0.025024	0.008698	0.002899	-0.003815	0.24063	0.33783	0.19501	0.094757	-0.021362	0.30899	-0.064697	-0.073242	0.03418	-0.001526	-0.037231	0.055084	-0.42389	-0.003052	-0.013275
2.804	0.002136	0.056458	-0.013733	0.000916	0.00473	-0.001373	0.016785	-0.004883	0.090942	-0.024872	0.004425	-0.006256	0.000763	-0.12619	0.011597	0.004425	-0.010681	0.21835	-0.045166	0.14587	-0.05249	0.086365	0.28214	-0.1062	-0.13763	0.007477	-0.007477	0.002289	0.031891	-0.87723	-0.002594	-0.020294
2.805	0.004578	0.054626	-0.04425	0.002899	0.003357	0.022278	0.006561	0.001984	0.075378	-0.040436	0.001984	0.002594	-0.028534	-0.15366	0.00061	0.004578	-0.017242	0.20889	-0.15671	0.099335	-0.082092	0.1236	0.36194	-0.091095	-0.14404	-0.024109	0.010223	-0.019379	-0.021057	-0.63202	-0.006714	-0.009003
2.806	0.000916	0.057068	-0.032654	0.010986	-0.036926	-0.004272	0.012665	-0.014648	0.089569	-0.025635	0.013733	-0.001831	-0.033875	-0.028687	0.007477	0.000916	0.007324	0.12131	0.35019	0.075226	0.13458	0.083466	0.46509	-0.19577	-0.061493	-0.010681	0.074158	-0.18127	-0.047302	-0.30319	-0.003967	-0.022583
2.807	0.001526	0.021667	-0.050964	0.011749	-0.049438	-0.024109	0.014648	-0.001373	0.075378	-0.036316	0.019836	-0.005798	0.000458	-0.001526	0.006409	0.007324	0.030212	0.093994	0.41199	0.045319	0.22675	0.010071	0.28931	-0.04715	-0.066376	-0.001678	0.11765	0.007782	0.26291	-0.20676	-0.004272	-0.03067
2.808	0.00412	-0.001068	-0.046844	0.008392	0.010681	-0.058441	0.026398	-0.009918	0.081024	-0.040436	-0.000458	-0.013275	0.047302	-0.024261	0.003967	-0.001984	0.015106	0.041046	-0.060883	-0.005188	0.068817	0.006561	-0.19531	0.077515	-0.13534	0.005035	0.10712	0.27863	0.28946	0.20813	-0.001373	-0.021973
2.809	-0.001984	0.013428	-0.029297	0.010071	0.019836	-0.04837	0.026855	-0.003052	0.078583	-0.030518	0.001068	-0.010071	0.007935	-0.021057	-0.009155	-0.000763	0.019836	0.069122	0.2214	-0.053864	-0.068512	-0.027161	-0.40207	0.020599	-0.027313	0.019073	0.071259	0.067444	0.39459	0.59967	-0.010681	-0.014038
2.81	-0.002136	0.009308	-0.031433	0.012665	0.013123	-0.009308	0.03418	-0.006256	0.074921	-0.041962	0.011597	-0.001373	-0.002747	-0.03418	-0.001068	0.001678	0.013885	0.039063	0.23086	-0.04425	-0.056	-0.015411	-0.38086	0.1091	0.2002	-0.008545	0.034485	-0.14786	0.18463	0.75531	-0.00946	-0.007019
2.811	-0.008087	0.033417	-0.045624	0.019836	-0.020905	0.011902	0.024719	-0.013123	0.071259	-0.031433	0.00412	-0.011444	0.035858	-0.031128	-0.004272	-0.001221	-0.037689	-0.001221	0.177	-0.028381	0.14542	-0.031281	-0.3096	0.072784	0.28168	-0.004883	0.015869	0	0.16159	0.68878	-0.00412	-0.008087
2.812	-0.007019	0.002594	-0.020599	0.006409	-0.026855	-0.027161	0.023651	0.000763	0.070953	-0.027771	-0.004578	-0.007324	0.060272	-0.038147	-0.034332	-0.002899	0.011139	0	-0.37979	-0.017242	0.23132	-0.040131	-0.022278	0.028229	0.11917	-0.017395	0.036469	0.14786	0.022583	0.4454	0.008087	-0.011902
2.813	0.004883	-0.01236	0.001678	0.018005	0.058289	-0.018005	0.014496	-0.006256	0.060272	-0.032806	-0.003967	-0.005646	0.046082	-0.08255	-0.013733	0.000458	0.032654	0.011902	-0.027924	-0.06546	0.085297	0.036621	-0.27542	-0.12238	0.081024	-0.01709	0.03006	0.029297	-0.11017	0.36087	-0.003052	-0.005341
2.814	0.001526	-0.000305	0.028381	0.011292	0.015259	-0.015869	0.018921	-0.008545	0.059204	-0.032196	0.006256	-0.012054	-0.034332	-0.074463	-0.010071	-0.006409	-0.003967	-0.022583	-0.091095	-0.051117	-0.44037	0.26916	-0.33569	-0.10696	0.089569	0.018311	0.027313	-0.013275	-0.067902	0.298	-0.001831	0.003357
2.815	0.016327	-0.028839	0.036163	0.020142	-0.079498	-0.030365	0.008698	0.00061	0.060883	-0.030365	0.007782	-0.009766	-0.040283	-0.054932	-0.003052	0.000153	-0.03952	-0.031891	0.061646	-0.026093	-0.28397	0.11093	-0.32989	0.054779	0.1062	0.033264	0.033112	0.017548	-0.000763	-0.007935	-0.003815	-0.000916
2.816	0.008545	-0.02121	0.027161	0.008698	-0.06424	-0.049896	0.021362	-0.012054	0.055237	-0.031128	0.013275	-0.010223	-0.001526	-0.085449	-0.005341	-0.003357	-0.02533	-0.023651	0.43671	-0.023193	0.072632	-0.082855	-0.22263	0.084686	0.088959	0.04715	0.026703	-0.039368	0.048676	-0.18005	-0.002594	-0.003357
2.817	-0.006866	-0.034485	0.00351	0.005035	0.012207	-0.016785	0.020447	0.010834	0.055237	-0.033417	0.001831	-0.016327	0.012512	-0.086517	-0.010071	-0.004425	-0.016785	-0.072784	0.37506	0.084686	0.00946	-0.035553	-0.043793	0.01709	0.075836	0.038147	0.017853	-0.048828	0.042572	0.14191	-0.005035	-0.002136
2.818	-0.005341	-0.00946	-0.019379	-0.002899	0.04364	0.018463	0.032043	-0.002899	0.06424	-0.027924	-0.019379	-0.008545	0.007782	-0.084229	0.001373	-0.002594	0.014343	-0.121	0.080109	0.1152	-0.027771	-0.027161	-0.03418	0.04837	0.050964	-0.005646	0.055237	0.022583	-0.054169	0.36896	-0.004883	-0.00946
2.819	-0.005798	-0.021667	-0.061951	0.000763	0.017853	0.034637	0.037994	0.005493	0.060425	-0.016174	-0.020752	-0.015869	0.020447	-0.092773	-0.009155	-0.007172	0.015259	-0.084534	-0.13412	0.12711	-0.045471	-0.040894	-0.034332	0.003967	0.041351	-0.041199	0.075226	-0.018311	-0.096741	-0.034943	-0.001373	-0.015564
2.82	-0.006256	-0.015717	-0.1384	0.008087	0.002594	0.00412	0.036163	-0.002136	0.074158	-0.017548	0.062866	-0.015106	0.023499	-0.083923	-0.012512	-0.001678	0.006561	-0.066833	-0.007172	0.065002	-0.063782	-0.007782	-0.058746	-0.029907	0.016022	-0.026093	0.063477	-0.025024	-0.049286	-0.66452	-0.006104	-0.013733
2.821	0.010376	0.009308	-0.11063	0.000305	-0.054169	-0.028687	0.025635	-0.004578	0.061493	-0.006561	0.00061	-0.016632	0.048218	-0.07309	-0.005188	-0.011749	0.001373	-0.12405	-0.030823	0.027008	-0.16144	0.016327	-0.041351	-0.015717	0.024872	-0.001526	0.012665	-0.016632	-0.25742	-0.84991	-0.007172	-0.019226
2.822	0.014496	0.028534	-0.00473	0.003815	-0.072479	-0.048676	0.027313	-0.006104	0.057831	-0.016022	0.006866	-0.015564	0.03952	-0.097198	-0.008087	-0.006409	0.010071	-0.077209	-0.07309	-0.00946	-0.12802	0.000305	-0.011139	-0.07431	0.016327	0.002747	0.024414	0.000305	-0.46051	-0.63446	-0.004578	-0.020752
